<?xml version="1.0" encoding="utf-8"?>
<!-- Generator: Adobe Illustrator 24.0.1, SVG Export Plug-In . SVG Version: 6.00 Build 0)  -->
<svg version="1.1" id="Layer_1" xmlns="http://www.w3.org/2000/svg" xmlns:xlink="http://www.w3.org/1999/xlink" x="0px" y="0px"
	 viewBox="0 0 1920 1080" style="enable-background:new 0 0 1920 1080;" xml:space="preserve">
<style type="text/css">
	.st0{fill:#2E3192;}
	.st1{fill:#A3023C;}
	.st2{fill:#FC0D2A;}
</style>
<g id="_x31_">
	<g>
		<rect class="st0" width="1920" height="1080"/>
		<g>
			<path class="st1" d="M962.1,218.5l-186.7,67.6l-99.6,171.8L710,653.5l151.9,127.9l198.6,0.3l152.4-127.4l34.8-195.5l-99-172.2
				L962.1,218.5z M878.4,728.7l-43.3-88.2l123.4,31.2L878.4,728.7z M747.1,606.2l-21.9-125.4l119.5,43.7L747.1,606.2z M798.8,315.2
				l96.9,16.7l-97.6,81.6L798.8,315.2z M1056.7,715.1l-21.9-125.4l119.5,43.7L1056.7,715.1z M951.9,588.9l-64-137.9l151.5,13.5
				L951.9,588.9z M1133.2,541.3l-3-127.2l76.4,61.9L1133.2,541.3z M996.3,395.3l-21.9-125.4l119.5,43.7L996.3,395.3z"/>
			<path class="st2" d="M1149.2,283.6L960,214.7l-189.2,68.9L670.1,458l35,198.3l154.2,129.4h201.3l154.2-129.4l35-198.3
				L1149.2,283.6z M752.3,626l23.7-96.8l75.7,104.5L752.3,626z M729.9,445.3l64.5-111.7l64.5,111.7H729.9z M959.4,252.6l64.5,76
				h-129L959.4,252.6z M899.9,731.3l64.5-111.7l64.5,111.7H899.9z M900.4,565l39.9-148.9l109,109L900.4,565z M1072.3,645.9
				l80.4-100.9l19.2,97.8L1072.3,645.9z M1060.9,443.3l64.5-111.7l64.5,111.7H1060.9z"/>
		</g>
		<g>
			
				<rect x="1363.2" y="138.1" transform="matrix(0.3978 -0.9175 0.9175 0.3978 677.8117 1413.0009)" class="st2" width="104.2" height="104.2"/>
			<circle class="st2" cx="120" cy="240" r="57"/>
			
				<ellipse transform="matrix(0.8956 -0.4449 0.4449 0.8956 -160.9636 725.4652)" class="st2" cx="1465" cy="705.6" rx="84" ry="40"/>
			<polygon class="st2" points="324.9,766 189.8,707.7 307.9,619.9 			"/>
			<polygon class="st2" points="1887.9,391 1752.8,332.7 1870.9,244.9 			"/>
			<path class="st2" d="M571.2,975.9l-4.7-3.2c-22.8-15.7-28.5-47.2-12.8-70l51.7-74.8c15.7-22.8,47.2-28.5,70-12.8l4.7,3.2
				c22.8,15.7,28.5,47.2,12.8,70l-51.7,74.8C625.4,985.9,594,991.6,571.2,975.9z"/>
			<polygon class="st2" points="614.1,206.1 572.6,165 515.5,152.7 556.6,111.2 568.9,54 610.4,95.2 667.5,107.5 626.4,149 			"/>
			<polygon class="st2" points="1730.1,998.1 1688.6,957 1631.5,944.7 1672.6,903.2 1684.9,846 1726.4,887.2 1783.5,899.5 
				1742.4,941 			"/>
		</g>
	</g>
</g>
</svg>
