<?xml version="1.0" encoding="utf-8"?>
<!-- Generator: Adobe Illustrator 24.0.1, SVG Export Plug-In . SVG Version: 6.00 Build 0)  -->
<svg version="1.1" id="Layer_1" xmlns="http://www.w3.org/2000/svg" xmlns:xlink="http://www.w3.org/1999/xlink" x="0px" y="0px"
	 viewBox="0 0 360 640" style="enable-background:new 0 0 360 640;" xml:space="preserve">
<style type="text/css">
	.st0{fill:#2E3192;}
	.st1{fill:#A3023C;}
	.st2{fill:#FC0D2A;}
</style>
<rect class="st0" width="360" height="640"/>
<g>
	<path class="st1" d="M180.8,197.8L110,223.4l-37.8,65.1l12.9,74.2l57.6,48.5l75.3,0.1l57.8-48.3l13.2-74.1l-37.5-65.3L180.8,197.8z
		 M149.1,391.2l-16.4-33.5l46.8,11.8L149.1,391.2z M99.3,344.7L91,297.2l45.3,16.6L99.3,344.7z M118.9,234.4l36.7,6.3l-37,30.9
		L118.9,234.4z M216.7,386l-8.3-47.5l45.3,16.6L216.7,386z M176.9,338.2l-24.3-52.3L210,291L176.9,338.2z M245.7,320.1l-1.1-48.2
		l29,23.5L245.7,320.1z M193.8,264.8l-8.3-47.5l45.3,16.6L193.8,264.8z"/>
	<path class="st2" d="M251.7,222.4L180,196.3l-71.7,26.1l-38.2,66.1l13.3,75.2l58.5,49.1h76.3l58.5-49.1l13.3-75.2L251.7,222.4z
		 M101.3,352.2l9-36.7l28.7,39.6L101.3,352.2z M92.8,283.7l24.4-42.3l24.4,42.3H92.8z M179.8,210.7l24.4,28.8h-48.9L179.8,210.7z
		 M157.2,392.2l24.4-42.3l24.4,42.3H157.2z M157.4,329.1l15.1-56.4l41.3,41.3L157.4,329.1z M222.6,359.8l30.5-38.2l7.3,37.1
		L222.6,359.8z M218.2,283l24.4-42.3L267,283H218.2z"/>
</g>
<g>
	
		<rect x="43.5" y="146.5" transform="matrix(0.3978 -0.9175 0.9175 0.3978 -113.9079 155.6824)" class="st2" width="36.3" height="36.3"/>
	<circle class="st2" cx="79" cy="578.7" r="19.9"/>
	
		<ellipse transform="matrix(0.8956 -0.4449 0.4449 0.8956 -40.3631 122.6492)" class="st2" cx="241.1" cy="147.3" rx="13.9" ry="29.3"/>
	<polygon class="st2" points="262.2,544.4 241.9,591.4 211.3,550.3 	"/>
	<polygon class="st2" points="131.6,23 131.6,74.3 87.2,48.7 	"/>
	<path class="st2" d="M335.3,458.6l-1.1,1.6c-5.5,7.9-16.4,9.9-24.4,4.4l-26-18c-7.9-5.5-9.9-16.4-4.4-24.4l1.1-1.6
		c5.5-7.9,16.4-9.9,24.4-4.4l26,18C338.7,439.7,340.7,450.7,335.3,458.6z"/>
	<polygon class="st2" points="67.2,443.6 52.8,458.1 48.6,478 34.1,463.7 14.2,459.4 28.5,444.9 32.8,425 47.3,439.4 	"/>
	<polygon class="st2" points="343,55 328.7,69.4 324.4,89.3 309.9,75 290,70.7 304.4,56.3 308.6,36.3 323.1,50.7 	"/>
</g>
</svg>
